<svg width="24" height="24" viewBox="0 0 24 24" fill="none" xmlns="http://www.w3.org/2000/svg">
<path d="M4.2059 2.83818C6.36324 2.54915 8.56444 2.39999 10.8 2.39999C13.0356 2.39999 15.2368 2.54915 17.3941 2.83818C18.8902 3.03861 20.0089 4.16796 20.3157 5.55996C20.091 5.51787 19.8601 5.48982 19.6237 5.47691C18.6887 5.42585 17.7472 5.39999 16.8 5.39999C15.8528 5.39999 14.9113 5.42585 13.9763 5.47691C11.075 5.63537 9.00001 8.07287 9.00001 10.7975V13.4852C9.00001 15.1814 9.80411 16.7671 11.1125 17.7603L7.53641 21.3364C7.27901 21.5938 6.8919 21.6708 6.5556 21.5315C6.21929 21.3922 6.00001 21.064 6.00001 20.7V16.5688C5.39878 16.5105 4.80068 16.4415 4.20593 16.3618C2.4401 16.1252 1.20001 14.5946 1.20001 12.8654V6.33462C1.20001 4.60541 2.44006 3.07475 4.2059 2.83818Z" fill="#09090B"/>
<path d="M16.8 7.19999C15.8855 7.19999 14.9768 7.22495 14.0745 7.27424C12.1887 7.37723 10.8 8.96654 10.8 10.7975V13.4852C10.8 15.3078 12.176 16.8924 14.0522 17.0071C14.3086 17.0228 14.5655 17.0365 14.8229 17.0482C15.0631 17.0592 15.284 17.1568 15.4443 17.3171L18.2636 20.1364C18.521 20.3938 18.9081 20.4708 19.2444 20.3315C19.5807 20.1922 19.8 19.864 19.8 19.5V17.0154C21.5431 16.7817 22.8 15.2598 22.8 13.5178V10.7975C22.8 8.96653 21.4113 7.37723 19.5256 7.27423C18.6232 7.22495 17.7145 7.19999 16.8 7.19999Z" fill="#09090B"/>
</svg>
