<svg width="49" height="48" viewBox="0 0 49 48" fill="none" xmlns="http://www.w3.org/2000/svg">
<path d="M0.333496 8C0.333496 3.58172 3.91522 0 8.3335 0H40.3335C44.7518 0 48.3335 3.58172 48.3335 8V40C48.3335 44.4183 44.7518 48 40.3335 48H8.3335C3.91522 48 0.333496 44.4183 0.333496 40V8Z" fill="white"/>
<path d="M20.3334 37.3337V24.0003H28.3334V37.3337M10.3334 24.7191L38.3707 34.321M38.3334 24.7191L10.2961 34.321M12.3334 20.0003L24.3334 10.667L36.3334 20.0003V34.667C36.3334 35.3742 36.0525 36.0525 35.5524 36.5526C35.0523 37.0527 34.374 37.3337 33.6667 37.3337H15.0001C14.2928 37.3337 13.6146 37.0527 13.1145 36.5526C12.6144 36.0525 12.3334 35.3742 12.3334 34.667V20.0003Z" stroke="#FA9500" stroke-width="2" stroke-linecap="round"/>
</svg>
